<?xml version="1.0" encoding="UTF-8"?>
<!DOCTYPE svg PUBLIC "-//W3C//DTD SVG 1.1//EN" "http://www.w3.org/Graphics/SVG/1.1/DTD/svg11.dtd">
<svg version="1.1" xmlns="http://www.w3.org/2000/svg" xmlns:xlink="http://www.w3.org/1999/xlink" x="0" y="0" width="488.225" height="544.305" viewBox="0, 0, 488.225, 544.305">
  <defs>
    <clipPath id="Clip_1">
      <path d="M463.633,206.064 C465.864,254.961 361.562,280.722 235.664,280.722 C109.761,280.722 9.023,258.515 7.69,206.064 C6.377,154.541 109.761,131.406 235.664,131.406 C361.562,131.406 461.206,152.802 463.633,206.064 z"/>
    </clipPath>
    <clipPath id="Clip_2">
      <path d="M463.633,164.297 C465.864,213.183 361.562,238.945 235.664,238.945 C109.761,238.945 9.023,216.748 7.69,164.297 C6.377,112.763 109.761,89.638 235.664,89.638 C361.562,89.638 461.206,111.025 463.633,164.297 z"/>
    </clipPath>
    <clipPath id="Clip_3">
      <path d="M463.633,119.863 C465.864,168.75 361.562,194.521 235.664,194.521 C109.761,194.521 9.023,172.314 7.69,119.863 C6.377,68.34 109.761,45.205 235.664,45.205 C361.562,45.205 461.206,66.592 463.633,119.863 z"/>
    </clipPath>
  </defs>
  <g id="Layer_1">
    <path d="M142.632,439.619 L130.898,512.187 C130.898,512.187 115.957,520.713 113.828,527.119 C111.689,533.525 135.171,545.263 157.583,535.654 C179.985,526.045 191.723,442.822 191.723,442.822" fill="#D9985B" id="path844"/>
    <path d="M142.632,439.619 L130.898,512.187 C130.898,512.187 115.957,520.713 113.828,527.119 C111.689,533.525 135.171,545.263 157.583,535.654 C179.985,526.045 191.723,442.822 191.723,442.822" fill-opacity="0" stroke="#3C2C1E" stroke-width="10" stroke-linecap="round" stroke-linejoin="round" id="path846"/>
    <path d="M332.431,439.619 L344.18,512.187 C344.18,512.187 359.111,520.713 361.25,527.119 C363.398,533.525 339.912,545.263 317.495,535.654 C295.083,526.045 283.354,442.822 283.354,442.822" fill="#D9985B" id="path848"/>
    <path d="M332.431,439.619 L344.18,512.187 C344.18,512.187 359.111,520.713 361.25,527.119 C363.398,533.525 339.912,545.263 317.495,535.654 C295.083,526.045 283.354,442.822 283.354,442.822" fill-opacity="0" stroke="#3C2C1E" stroke-width="10" stroke-linecap="round" stroke-linejoin="round" id="path850"/>
    <path d="M134.111,385.185 C134.111,385.185 119.16,454.56 125.566,454.56 C131.968,454.56 216.269,459.892 219.472,458.818 C222.676,457.754 245.073,439.619 245.073,439.619 C245.073,439.619 257.895,459.892 262.153,462.021 C266.431,464.16 365.669,460.967 365.669,457.754 C365.669,454.56 353.921,390.537 353.921,390.537 L134.111,385.185" fill="#EDB14E" id="path852"/>
    <path d="M134.111,385.185 C134.111,385.185 119.16,454.56 125.566,454.56 C131.968,454.56 216.269,459.892 219.472,458.818 C222.676,457.754 245.073,439.619 245.073,439.619 C245.073,439.619 257.895,459.892 262.153,462.021 C266.431,464.16 365.669,460.967 365.669,457.754 C365.669,454.56 353.921,390.537 353.921,390.537 z" fill-opacity="0" stroke="#3C2C1E" stroke-width="10" stroke-linecap="round" stroke-linejoin="round" id="path854"/>
    <path d="M87.72,304.101 L33.169,323.203 C33.169,323.203 20.996,315 12.261,317.734 C-2.29,322.275 5.889,353.183 29.526,358.652 C53.179,364.101 108.638,337.754 108.638,337.754" fill="#D9985B" id="path856"/>
    <path d="M87.72,304.101 L33.169,323.203 C33.169,323.203 20.996,315 12.261,317.734 C-2.29,322.275 5.889,353.183 29.526,358.652 C53.179,364.101 108.638,337.754 108.638,337.754" fill-opacity="0" stroke="#3C2C1E" stroke-width="10" stroke-linecap="round" stroke-linejoin="round" id="path858"/>
    <path d="M400.503,297.695 L455.054,316.797 C455.054,316.797 467.236,308.603 475.962,311.328 C490.522,315.879 482.329,346.787 458.686,352.246 C435.039,357.695 379.58,331.347 379.58,331.347" fill="#D9985B" id="path860"/>
    <path d="M400.503,297.695 L455.054,316.797 C455.054,316.797 467.236,308.603 475.962,311.328 C490.522,315.879 482.329,346.787 458.686,352.246 C435.039,357.695 379.58,331.347 379.58,331.347" fill-opacity="0" stroke="#3C2C1E" stroke-width="10" stroke-linecap="round" stroke-linejoin="round" id="path862"/>
    <path d="M127.754,270.683 C127.754,270.683 67.871,290.752 66.328,300.019 C64.8,309.287 84.751,350.976 89.37,349.424 C93.965,347.89 135.42,335.527 135.42,335.527 C135.42,335.527 118.535,389.58 127.754,391.113 C136.963,392.666 358.086,392.666 358.086,392.666 L347.334,326.25 C347.334,326.25 375.464,343.037 380.063,343.037 C384.682,343.037 427.895,305.947 423.281,298.222 C418.677,290.508 361.147,261.416 361.147,261.416" fill="#E15B5D" id="path864"/>
    <path d="M127.754,270.683 C127.754,270.683 67.871,290.752 66.328,300.019 C64.8,309.287 84.751,350.976 89.37,349.424 C93.965,347.89 135.42,335.527 135.42,335.527 C135.42,335.527 118.535,389.58 127.754,391.113 C136.963,392.666 358.086,392.666 358.086,392.666 L347.334,326.25 C347.334,326.25 375.464,343.037 380.063,343.037 C384.682,343.037 427.895,305.947 423.281,298.222 C418.677,290.508 361.147,261.416 361.147,261.416" fill-opacity="0" stroke="#3C2C1E" stroke-width="10" stroke-linecap="round" stroke-linejoin="round" id="path866"/>
    <path d="M463.633,206.064 C465.864,254.961 361.562,280.722 235.664,280.722 C109.761,280.722 9.023,258.515 7.69,206.064 C6.377,154.541 109.761,131.406 235.664,131.406 C361.562,131.406 461.206,152.802 463.633,206.064" fill="#D9985B" id="path868"/>
    <path d="M463.633,206.064 C465.864,254.961 361.562,280.722 235.664,280.722 C109.761,280.722 9.023,258.515 7.69,206.064 C6.377,154.541 109.761,131.406 235.664,131.406 C361.562,131.406 461.206,152.802 463.633,206.064 z" fill-opacity="0" stroke="#3C2C1E" stroke-width="10" stroke-linecap="round" stroke-linejoin="round" id="path870"/>
    <g clip-path="url(#Clip_1)" id="g874">
      <path d="M-3.413,201.631 C-3.413,201.631 53.467,260.195 218.779,259.404 C403.642,258.515 472.964,202.529 472.964,202.529 C472.964,202.529 482.744,248.74 421.421,270.068 C360.093,291.396 146.831,300.674 104.126,297.617 C29.468,292.285 -3.413,201.631 -3.413,201.631" fill="#F1B57E" id="path872"/>
    </g>
    <path d="M463.633,206.064 C465.864,254.961 361.562,280.722 235.664,280.722 C109.761,280.722 9.023,258.515 7.69,206.064 C6.377,154.541 109.761,131.406 235.664,131.406 C361.562,131.406 461.206,152.802 463.633,206.064 z" fill-opacity="0" stroke="#3C2C1E" stroke-width="10" stroke-linecap="round" stroke-linejoin="round" id="path876"/>
    <path d="M463.633,164.297 C465.864,213.183 361.562,238.945 235.664,238.945 C109.761,238.945 9.023,216.748 7.69,164.297 C6.377,112.763 109.761,89.638 235.664,89.638 C361.562,89.638 461.206,111.025 463.633,164.297" fill="#D9985B" id="path878"/>
    <path d="M463.633,164.297 C465.864,213.183 361.562,238.945 235.664,238.945 C109.761,238.945 9.023,216.748 7.69,164.297 C6.377,112.763 109.761,89.638 235.664,89.638 C361.562,89.638 461.206,111.025 463.633,164.297 z" fill-opacity="0" stroke="#3C2C1E" stroke-width="10" stroke-linecap="round" stroke-linejoin="round" id="path880"/>
    <g clip-path="url(#Clip_2)" id="g884">
      <path d="M-3.413,159.853 C-3.413,159.853 53.467,218.418 218.779,217.627 C403.642,216.748 472.964,160.752 472.964,160.752 C472.964,160.752 482.744,206.963 421.421,228.291 C360.093,249.629 146.831,258.896 104.126,255.84 C29.468,250.508 -3.413,159.853 -3.413,159.853" fill="#F1B57E" id="path882"/>
    </g>
    <path d="M463.633,164.297 C465.864,213.183 361.562,238.945 235.664,238.945 C109.761,238.945 9.023,216.748 7.69,164.297 C6.377,112.763 109.761,89.638 235.664,89.638 C361.562,89.638 461.206,111.025 463.633,164.297 z" fill-opacity="0" stroke="#3C2C1E" stroke-width="10" stroke-linecap="round" stroke-linejoin="round" id="path886"/>
    <path d="M463.633,119.863 C465.864,168.75 361.562,194.521 235.664,194.521 C109.761,194.521 9.023,172.314 7.69,119.863 C6.377,68.34 109.761,45.205 235.664,45.205 C361.562,45.205 461.206,66.592 463.633,119.863" fill="#D9985B" id="path888"/>
    <path d="M463.633,119.863 C465.864,168.75 361.562,194.521 235.664,194.521 C109.761,194.521 9.023,172.314 7.69,119.863 C6.377,68.34 109.761,45.205 235.664,45.205 C361.562,45.205 461.206,66.592 463.633,119.863 z" fill-opacity="0" stroke="#3C2C1E" stroke-width="10" stroke-linecap="round" stroke-linejoin="round" id="path890"/>
    <g clip-path="url(#Clip_3)" id="g894">
      <path d="M-3.413,115.42 C-3.413,115.42 53.467,173.984 218.779,173.193 C403.642,172.314 472.964,116.318 472.964,116.318 C472.964,116.318 482.744,162.529 421.421,183.867 C360.093,205.195 146.831,214.463 104.126,211.416 C29.468,206.074 -3.413,115.42 -3.413,115.42" fill="#F1B57E" id="path892"/>
    </g>
    <path d="M463.633,119.863 C465.864,168.75 361.562,194.521 235.664,194.521 C109.761,194.521 9.023,172.314 7.69,119.863 C6.377,68.34 109.761,45.205 235.664,45.205 C361.562,45.205 461.206,66.592 463.633,119.863 z" fill-opacity="0" stroke="#3C2C1E" stroke-width="10" stroke-linecap="round" stroke-linejoin="round" id="path896"/>
    <path d="M183.003,56.533 C183.003,56.533 95.679,64.531 89.014,75.869 C82.348,87.197 100.347,83.203 103.681,92.529 C107.012,101.865 78.349,107.197 77.681,117.861 C77.016,128.525 102.348,139.189 115.01,136.523 C127.676,133.857 162.339,113.193 176.338,119.863 C190.337,126.523 183.003,153.193 205,156.523 C226.997,159.853 256.328,127.861 274.326,129.863 C292.324,131.855 308.32,151.191 323.652,147.861 C338.984,144.521 339.648,109.863 357.646,110.527 C375.644,111.191 407.641,97.197 397.641,85.195 C387.641,73.203 295.654,60.537 264.326,60.537" fill="#EECE6A" id="path898"/>
    <path d="M223.891,5 L167.007,20.097 C167.007,20.097 163.442,62.763 167.007,62.763 C170.566,62.763 231.894,81.426 237.226,81.426 C242.558,81.426 303.882,60.097 304.77,57.431 C305.654,54.765 306.548,20.996 306.548,20.996 L223.891,5" fill="#EECE6A" id="path900"/>
    <path d="M223.891,5 L167.007,20.097 C167.007,20.097 163.442,62.763 167.007,62.763 C170.566,62.763 231.894,81.426 237.226,81.426 C242.558,81.426 303.882,60.097 304.77,57.431 C305.654,54.765 306.548,20.996 306.548,20.996 z" fill-opacity="0" stroke="#3C2C1E" stroke-width="10" stroke-linecap="round" stroke-linejoin="round" id="path902"/>
    <path d="M183.667,30.537 L240.996,43.203 L284.321,31.201" fill="#EECE6A" id="path904"/>
    <path d="M183.667,30.537 L240.996,43.203 L284.321,31.201" fill-opacity="0" stroke="#3C2C1E" stroke-width="10" stroke-linecap="round" stroke-linejoin="round" id="path906"/>
    <path d="M240.996,43.203 L240.996,65.205" fill="#EECE6A" id="path908"/>
    <path d="M240.996,43.203 L240.996,65.205" fill-opacity="0" stroke="#3C2C1E" stroke-width="10" stroke-linecap="round" stroke-linejoin="round" id="path910"/>
    <path d="M206.777,131.66 C206.777,152.685 189.722,169.736 168.681,169.736 C147.646,169.736 130.596,152.685 130.596,131.66 C130.596,110.615 147.646,93.574 168.681,93.574 C189.722,93.574 206.777,110.615 206.777,131.66" fill="#E6753B" id="path912"/>
    <path d="M162.261,108.73 C163.54,111.572 160.918,115.508 156.416,117.529 C151.914,119.541 147.231,118.867 145.957,116.025 C144.682,113.183 147.3,109.248 151.802,107.226 C156.308,105.205 160.991,105.879 162.261,108.73" fill="#FFFFFE" id="path914"/>
    <path d="M342.197,131.66 C342.197,152.685 325.146,169.736 304.106,169.736 C283.071,169.736 266.02,152.685 266.02,131.66 C266.02,110.615 283.071,93.574 304.106,93.574 C325.146,93.574 342.197,110.615 342.197,131.66" fill="#E6753B" id="path916"/>
    <path d="M297.681,108.73 C298.96,111.572 296.338,115.508 291.841,117.529 C287.334,119.541 282.651,118.867 281.382,116.025 C280.102,113.183 282.72,109.248 287.222,107.226 C291.733,105.205 296.416,105.879 297.681,108.73" fill="#FFFFFE" id="path918"/>
    <path d="M212.417,101.094 C212.417,111.474 207.046,119.892 200.42,119.892 C193.804,119.892 188.432,111.474 188.432,101.094 C188.432,90.703 193.804,82.285 200.42,82.285 C207.046,82.285 212.417,90.703 212.417,101.094" fill="#3C2C1E" id="path920"/>
    <path d="M279.189,101.094 C279.189,111.474 273.818,119.892 267.202,119.892 C260.576,119.892 255.205,111.474 255.205,101.094 C255.205,90.703 260.576,82.285 267.202,82.285 C273.818,82.285 279.189,90.703 279.189,101.094" fill="#3C2C1E" id="path922"/>
    <path d="M189.844,137.295 L274.014,136.357 C274.014,136.357 268.374,181.494 229.819,180.088 C191.255,178.672 189.844,137.295 189.844,137.295" fill="#E05659" id="path924"/>
    <path d="M189.844,137.295 L274.014,136.357 C274.014,136.357 268.374,181.494 229.819,180.088 C191.255,178.672 189.844,137.295 189.844,137.295 z" fill-opacity="0" stroke="#3C2C1E" stroke-width="10" stroke-linecap="round" stroke-linejoin="round" id="path926"/>
  </g>
</svg>
