<?xml version="1.0" standalone="no"?><!-- Generator: Gravit.io --><svg xmlns="http://www.w3.org/2000/svg" xmlns:xlink="http://www.w3.org/1999/xlink" style="isolation:isolate" viewBox="0 0 200 200" width="200" height="200"><defs><clipPath id="_clipPath_BTBs7dxomMEq9FvBtw1GJquzwSPqJ22b"><rect width="200" height="200"/></clipPath></defs><g clip-path="url(#_clipPath_BTBs7dxomMEq9FvBtw1GJquzwSPqJ22b)"><g id="Group"><path d=" M 64.327 99.978 C 64.327 79.964 80.576 63.715 100.59 63.715 C 120.605 63.715 136.854 79.964 136.854 99.978 C 136.854 119.993 120.605 136.242 100.59 136.242 C 80.576 136.242 64.327 119.993 64.327 99.978 Z " fill="rgb(23,142,168)"/><path d="M 24.867 83.634 L 174.271 83.634 C 181.527 83.634 187.418 89.526 187.418 96.782 L 187.418 178.767 C 187.418 186.023 181.527 191.914 174.271 191.914 L 24.867 191.914 C 17.611 191.914 11.719 186.023 11.719 178.767 L 11.719 96.782 C 11.719 89.526 17.611 83.634 24.867 83.634 Z" style="stroke:none;fill:#1EC4EE;stroke-miterlimit:10;"/><path d=" M 48.494 196 L 43.386 196 L 43.386 188.727 C 43.386 184.813 45.414 181.369 48.494 179.414 L 48.494 196 Z " fill="rgb(89,223,255)"/><path d=" M 60.752 196 L 48.494 196 L 48.494 179.414 C 50.211 178.265 52.28 177.613 54.5 177.613 L 60.752 177.613 L 60.752 196 Z " fill="rgb(23,142,168)"/><path d=" M 68.924 196 L 60.752 196 L 60.752 177.613 L 68.924 177.613 L 68.924 196 Z " fill="rgb(89,223,255)"/><path d=" M 77.096 196 L 68.924 196 L 68.924 177.613 L 77.096 177.613 L 77.096 196 Z " fill="rgb(23,142,168)"/><path d=" M 87.311 196 L 77.096 196 L 77.096 177.613 L 87.311 177.613 L 87.311 196 Z " fill="rgb(89,223,255)"/><path d=" M 95.483 196 L 87.311 196 L 87.311 177.613 L 95.483 177.613 L 95.483 196 Z " fill="rgb(23,142,168)"/><path d=" M 105.698 196 L 95.483 196 L 95.483 177.613 L 105.698 177.613 L 105.698 196 Z " fill="rgb(89,223,255)"/><path d=" M 113.87 196 L 105.698 196 L 105.698 177.613 L 113.87 177.613 L 113.87 196 Z " fill="rgb(23,142,168)"/><path d=" M 124.085 196 L 113.87 196 L 113.87 177.613 L 124.085 177.613 L 124.085 196 Z " fill="rgb(89,223,255)"/><path d=" M 132.257 196 L 124.085 196 L 124.085 177.613 L 132.257 177.613 L 132.257 196 Z " fill="rgb(23,142,168)"/><path d=" M 140.429 196 L 132.257 196 L 132.257 177.613 L 140.429 177.613 L 140.429 196 Z " fill="rgb(89,223,255)"/><path d=" M 150.644 196 L 140.429 196 L 140.429 177.613 L 145.659 177.613 C 147.453 177.613 149.148 178.039 150.644 178.805 L 150.644 196 Z " fill="rgb(23,142,168)"/><path d=" M 150.644 196 L 156.773 196 L 156.773 188.727 C 156.773 184.387 154.28 180.624 150.644 178.805 L 150.644 196 Z " fill="rgb(89,223,255)"/><g id="Group"><path d=" M 26.021 134.71 C 26.021 115.541 41.583 99.978 60.752 99.978 C 79.92 99.978 95.483 115.541 95.483 134.71 C 95.483 153.878 79.92 169.441 60.752 169.441 C 41.583 169.441 26.021 153.878 26.021 134.71 Z " fill="rgb(255,255,255)"/><path d=" M 42.977 124.64 C 46.49 118.454 53.137 114.28 60.752 114.28" fill="none" vector-effect="non-scaling-stroke" stroke-width="10.215" stroke="rgb(0,0,0)" stroke-linejoin="miter" stroke-linecap="square" stroke-miterlimit="3"/><path d=" M 58.709 155.022 C 51.905 154.36 46.083 150.344 42.895 144.659" fill="none" vector-effect="non-scaling-stroke" stroke-width="10.215" stroke="rgb(0,0,0)" stroke-linejoin="miter" stroke-linecap="square" stroke-miterlimit="3"/><path d=" M 79.006 125.583 C 80.406 128.323 81.182 131.426 81.182 134.71 C 81.182 137.988 80.408 141.087 79.012 143.824" fill="none" vector-effect="non-scaling-stroke" stroke-width="10.215" stroke="rgb(0,0,0)" stroke-linejoin="miter" stroke-linecap="square" stroke-miterlimit="3"/></g><g id="Group"><path d=" M 105.698 134.71 C 105.698 115.541 121.26 99.978 140.429 99.978 C 159.598 99.978 175.16 115.541 175.16 134.71 C 175.16 153.878 159.598 169.441 140.429 169.441 C 121.26 169.441 105.698 153.878 105.698 134.71 Z " fill="rgb(255,255,255)"/><path d=" M 122.654 124.64 C 126.167 118.454 132.815 114.28 140.429 114.28" fill="none" vector-effect="non-scaling-stroke" stroke-width="10.215" stroke="rgb(0,0,0)" stroke-linejoin="miter" stroke-linecap="square" stroke-miterlimit="3"/><path d=" M 138.386 155.022 C 131.583 154.36 125.761 150.344 122.573 144.659" fill="none" vector-effect="non-scaling-stroke" stroke-width="10.215" stroke="rgb(0,0,0)" stroke-linejoin="miter" stroke-linecap="square" stroke-miterlimit="3"/><path d=" M 158.683 125.583 C 160.083 128.323 160.859 131.426 160.859 134.71 C 160.859 137.988 160.085 141.087 158.689 143.824" fill="none" vector-effect="non-scaling-stroke" stroke-width="10.215" stroke="rgb(0,0,0)" stroke-linejoin="miter" stroke-linecap="square" stroke-miterlimit="3"/></g><g id="Group"><path d=" M 16.613 21.693 C 13.025 18.105 13.025 12.279 16.613 8.691 C 20.201 5.103 26.026 5.103 29.614 8.691 C 33.202 12.279 33.202 18.105 29.614 21.693 C 26.026 25.28 20.201 25.28 16.613 21.693 Z " fill="rgb(23,142,168)"/><rect x="52.13" y="7.434" width="4.086" height="77.634" transform="matrix(0.707,-0.707,0.707,0.707,-16.838,51.853)" fill="rgb(23,142,168)"/></g><g id="Group"><path d=" M 185.59 21.693 C 189.178 18.105 189.178 12.279 185.59 8.691 C 182.002 5.103 176.176 5.103 172.588 8.691 C 169 12.279 169 18.105 172.588 21.693 C 176.176 25.28 182.002 25.28 185.59 21.693 Z " fill="rgb(23,142,168)"/><rect x="145.986" y="7.434" width="4.086" height="77.634" transform="matrix(0.707,0.707,-0.707,0.707,76.061,-91.126)" fill="rgb(23,142,168)"/></g></g></g></svg>